# xmcd CD database file
#
# Track frame offsets:
#	150
#	8907
#	17351
#	38218
#	51559
#	68960
#	92331
#	111731
#	129410
#	140777
#	164264
#	182824
#	200077
#
# Disc length: 2978 seconds
#
# Revision: 1
# Processed by: cddbd v1.5.1PL0 Copyright (c) Steve Scherf et al.
# Submitted via: CDex 1.51
#
DISCID=bc0ba00d
DTITLE=HATESPHERE - Ballet Of The Brute
DYEAR=2004
DGENRE=Heavy Metal
TTITLE0=The Beginning And The End
TTITLE1=Deathtrip
TTITLE2=Vermin
TTITLE3=Downward To Nothing
TTITLE4=Only The Strongest...
TTITLE5=What I See Despise
TTITLE6=Last Cut, Last Head
TTITLE7=Warhead
TTITLE8=Blankeyed
TTITLE9=500 Dead People
TTITLE10=Release The Pain
TTITLE11=Bark At The Moon
TTITLE12=Caught In A Mosh
EXTD=YEAR: 2004
EXTT0=
EXTT1=
EXTT2=
EXTT3=
EXTT4=
EXTT5=
EXTT6=
EXTT7=
EXTT8=
EXTT9=
EXTT10=
EXTT11=
EXTT12=
PLAYORDER=
